<svg data-v-fde0c5aa="" xmlns="http://www.w3.org/2000/svg" viewBox="0 0 300 300" class="iconLeft"><!----><defs data-v-fde0c5aa=""><linearGradient data-v-fde0c5aa="" gradientTransform="rotate(25)" id="d6e57a6e-07ff-4f84-a410-2dff652b4860" x1="0%" y1="0%" x2="100%" y2="0%"><stop data-v-fde0c5aa="" offset="0%" stop-color="#01648B" stop-opacity="1"></stop><stop data-v-fde0c5aa="" offset="100%" stop-color="#5BD0A4" stop-opacity="1"></stop></linearGradient></defs><rect data-v-fde0c5aa="" fill="url(#d6e57a6e-07ff-4f84-a410-2dff652b4860)" x="0" y="0" width="300px" height="300px" class="logo-background-square"></rect><defs data-v-fde0c5aa=""><!----></defs><g data-v-fde0c5aa="" id="11e973c8-95f8-4a3a-88b5-0795a8133fc1" fill="#ffffff" transform="matrix(2.516103744506836,0,0,2.516103744506836,88.5275136382023,128.7263414371009)"><path d="M0.59 8.55C0.59 11.55 2.11 13.51 5.71 13.51C6.69 13.51 8.15 13.34 8.99 12.84L9.16 10.11L8.62 10.11C8.09 11.65 7.49 12.87 5.91 12.87C3.42 12.87 3.07 9.91 3.07 8.33C3.07 7.31 3.26 4.05 5.80 4.05C7.59 4.05 8.08 5.52 8.40 6.52L8.93 6.52L8.93 4.02C8.09 3.51 6.62 3.40 5.92 3.40C3.95 3.40 2.62 3.95 1.79 4.87C0.94 5.82 0.59 7.15 0.59 8.55ZM10.11 13.30L14.56 13.30L14.56 12.77C13.57 12.73 13.45 12.66 13.45 11.94L13.45 8.53L17.14 8.53L17.14 11.94C17.14 12.66 17.02 12.73 16.03 12.77L16.03 13.30L20.48 13.30L20.48 12.77C19.49 12.73 19.38 12.66 19.38 11.94L19.38 4.97C19.38 4.26 19.49 4.19 20.48 4.14L20.48 3.61L16.03 3.61L16.03 4.14C17.02 4.19 17.14 4.26 17.14 4.97L17.14 7.85L13.45 7.85L13.45 4.97C13.45 4.26 13.57 4.19 14.56 4.14L14.56 3.61L10.11 3.61L10.11 4.14C11.10 4.19 11.21 4.26 11.21 4.97L11.21 11.94C11.21 12.66 11.10 12.73 10.11 12.77ZM20.55 13.30L23.83 13.30L23.83 12.77L22.99 12.70C22.68 12.67 22.67 12.50 22.74 12.19C22.90 11.44 23.16 10.68 23.41 9.86L26.12 9.86L26.85 12.18C26.95 12.47 26.91 12.66 26.61 12.68L25.80 12.77L25.80 13.30L30.23 13.30L30.23 12.77C29.50 12.75 29.32 12.67 29.13 12.10L26.38 3.61L24.61 3.61L22.99 8.33C22.48 9.77 22.02 11.19 21.69 12.04C21.46 12.63 21.31 12.73 20.55 12.77ZM23.63 9.18L24.77 5.56L24.81 5.56L25.90 9.18ZM30.42 13.30L34.87 13.30L34.87 12.77C33.88 12.73 33.77 12.66 33.77 11.94L33.77 8.85L34.41 8.85C35.11 8.85 35.50 9.18 35.67 9.94C35.78 10.43 35.90 11.19 36.12 11.90C36.46 12.94 37.06 13.30 38.53 13.30L39.56 13.30L39.56 12.77C39.31 12.75 39.07 12.63 38.91 12.46C38.56 12.11 38.35 11.59 38.22 10.86C38.02 9.74 37.76 8.82 36.32 8.46L36.32 8.43C37.70 8.25 38.68 7.34 38.68 6.12C38.68 5.40 38.49 4.80 37.98 4.34C37.45 3.88 36.65 3.61 35.28 3.61L30.42 3.61L30.42 4.14C31.42 4.19 31.53 4.26 31.53 4.97L31.53 11.94C31.53 12.66 31.42 12.73 30.42 12.77ZM33.77 8.20L33.77 4.80C33.77 4.42 33.89 4.26 34.66 4.26C35.62 4.26 36.33 4.77 36.33 6.20C36.33 7.36 35.88 8.20 34.47 8.20ZM40.00 13.30L44.45 13.30L44.45 12.77C43.46 12.73 43.34 12.66 43.34 11.94L43.34 8.85L43.99 8.85C44.69 8.85 45.08 9.18 45.25 9.94C45.36 10.43 45.47 11.19 45.70 11.90C46.03 12.94 46.63 13.30 48.10 13.30L49.14 13.30L49.14 12.77C48.89 12.75 48.65 12.63 48.48 12.46C48.13 12.11 47.92 11.59 47.80 10.86C47.60 9.74 47.33 8.82 45.89 8.46L45.89 8.43C47.28 8.25 48.26 7.34 48.26 6.12C48.26 5.40 48.06 4.80 47.56 4.34C47.03 3.88 46.23 3.61 44.86 3.61L40.00 3.61L40.00 4.14C40.99 4.19 41.10 4.26 41.10 4.97L41.10 11.94C41.10 12.66 40.99 12.73 40.00 12.77ZM43.34 8.20L43.34 4.80C43.34 4.42 43.47 4.26 44.24 4.26C45.19 4.26 45.91 4.77 45.91 6.20C45.91 7.36 45.46 8.20 44.04 8.20ZM49.10 4.14C50.05 4.19 50.16 4.26 50.16 4.97L50.16 10.15C50.16 12.57 51.39 13.51 54.19 13.51C56.78 13.51 58.20 12.57 58.23 10.15L58.23 4.97C58.23 4.26 58.34 4.19 59.29 4.14L59.29 3.61L54.92 3.61L54.92 4.14C55.87 4.19 55.99 4.26 55.99 4.97L55.99 10.35C55.99 11.94 55.48 12.87 54.19 12.87C52.93 12.87 52.40 11.94 52.40 10.35L52.40 4.97C52.40 4.26 52.51 4.19 53.47 4.14L53.47 3.61L49.10 3.61ZM60.16 13.30L67.98 13.30L68.15 10.39L67.62 10.39C67.12 11.89 66.88 12.66 65.23 12.66C63.94 12.66 63.50 12.53 63.50 11.63L63.50 8.58L64.83 8.58C65.72 8.58 65.90 8.82 66.12 9.84L66.65 9.84L66.65 6.59L66.12 6.59C65.90 7.62 65.72 7.85 64.83 7.85L63.50 7.85L63.50 4.76C63.50 4.35 63.60 4.26 63.99 4.26L65.04 4.26C66.49 4.26 66.74 4.82 67.17 6.20L67.70 6.20L67.70 3.61L60.16 3.61L60.16 4.14C61.15 4.19 61.26 4.26 61.26 4.97L61.26 11.94C61.26 12.66 61.15 12.73 60.16 12.77Z"></path></g><defs data-v-fde0c5aa=""><!----></defs><g data-v-fde0c5aa="" id="a77a7e25-0b64-49ff-8389-7093cb5987ac" stroke="none" fill="#ffffff" transform="matrix(0.3815671503543854,0,0,0.3815671503543854,38.855298511060084,130.92164185100137)"><path d="M57.4 75.1H43.6c-1.1 0-2-.9-2-2s.9-2 2-2h13.8c1.1 0 2 .9 2 2s-.8 2-2 2zM36 75.1H19.6c-1.1 0-2-.9-2-2s.9-2 2-2H36c1.1 0 2 .9 2 2s-.8 2-2 2zM42.5 63.6H12.2c-1.1 0-2-.9-2-2s.9-2 2-2h30.2c1.1 0 2 .9 2 2s-.8 2-1.9 2zM84.5 63.6h-5.1c-1.1 0-2-.9-2-2s.9-2 2-2h5.1c1.1 0 2 .9 2 2s-.9 2-2 2zM64.8 67.4c-.4 0-.8-.1-1.2-.4-.5-.3-.8-.8-.8-1.4-.2-1.2-1.2-2.2-2.4-2.2-1.3 0-2.3.9-2.5 2.1-.1.6-.4 1.1-.9 1.4-.5.3-1 .4-1.6.3-2.6-.6-5-1.6-7.2-3.1-.5-.3-.8-.8-.9-1.4-.1-.6.1-1.1.4-1.6.8-1 .7-2.4-.2-3.3s-2.3-1-3.3-.3c-.5.3-1 .5-1.6.4-.6-.1-1-.4-1.3-.9-1.4-2.2-2.4-4.7-2.9-7.3-.1-.6 0-1.1.3-1.6s.8-.8 1.4-.8c1.2-.2 2.2-1.2 2.2-2.4s-.9-2.3-2.1-2.5c-.6-.1-1.1-.4-1.4-.9-.3-.5-.4-1-.3-1.6.6-2.6 1.6-5 3.1-7.2.3-.5.8-.8 1.4-.9.6-.1 1.1.1 1.6.4 1 .8 2.4.7 3.3-.2.9-.9 1-2.3.3-3.3-.3-.5-.5-1-.4-1.6.1-.6.4-1 .9-1.3 2.2-1.4 4.7-2.4 7.3-2.9.6-.1 1.1 0 1.6.3s.8.8.8 1.4c.2 1.2 1.2 2.2 2.4 2.2s2.3-.9 2.5-2.1c.1-.6.4-1.1.9-1.4.5-.3 1-.4 1.6-.3 2.6.6 5 1.6 7.2 3.1.5.3.8.8.9 1.4.1.6-.1 1.1-.4 1.6-.8 1-.7 2.4.2 3.3.9.9 2.3 1 3.3.3.5-.3 1-.5 1.6-.4.6.1 1 .4 1.3.9 1.4 2.2 2.4 4.7 2.9 7.3.1.6 0 1.1-.3 1.6-.5.5-1 .8-1.5.9-1.2.2-2.2 1.2-2.2 2.4 0 1 .6 1.9 1.5 2.3l.5.1c.6.1 1.1.4 1.4.8s.5 1.1.3 1.6c-.6 2.6-1.6 5-3.1 7.2-.3.5-.8.8-1.4.9-.6.1-1.1 0-1.6-.4-1-.8-2.4-.7-3.3.2-.9.9-1 2.3-.2 3.3.1.2.2.3.3.5.3.9 0 2-.8 2.5-2.2 1.4-4.7 2.4-7.3 2.9 0 .1-.2.1-.3.1zm-4.5-8c.1 0 .1 0 0 0 2.5 0 4.7 1.5 5.8 3.5.9-.3 1.8-.6 2.6-1.1-.7-2.3-.1-4.9 1.7-6.6 1.8-1.7 4.3-2.3 6.6-1.6.4-.8.8-1.7 1.1-2.6-2.1-1.2-3.4-3.3-3.3-5.8 0-2.5 1.5-4.6 3.5-5.7-.3-.9-.6-1.8-1.1-2.7-2.3.7-4.8.1-6.5-1.7-1.7-1.8-2.3-4.3-1.5-6.6-.8-.4-1.7-.8-2.6-1.1-1.1 2-3.3 3.4-5.7 3.4h-.1c-2.5 0-4.6-1.5-5.7-3.5-.9.3-1.8.6-2.7 1.1.7 2.3.1 4.8-1.7 6.5-1.8 1.7-4.3 2.3-6.6 1.5-.4.8-.8 1.7-1.1 2.6 2.1 1.1 3.4 3.3 3.4 5.8s-1.5 4.6-3.5 5.7c.3.9.6 1.8 1.1 2.7 2.3-.7 4.8-.1 6.5 1.7 1.7 1.8 2.3 4.3 1.5 6.6.8.4 1.7.8 2.6 1.1 1.1-1.8 3.3-3.2 5.7-3.2z"></path><path d="M60.6 52.5c-4 0-7.3-3.3-7.3-7.3s3.3-7.3 7.3-7.3 7.3 3.3 7.3 7.3c-.1 4.1-3.3 7.3-7.3 7.3zm0-10.5c-1.8 0-3.2 1.5-3.2 3.2 0 1.8 1.5 3.2 3.2 3.2 1.8 0 3.2-1.5 3.2-3.2 0-1.7-1.4-3.2-3.2-3.2zM29.3 62.4c-1.1 0-2-.9-2-2V49.8c0-1.1.9-2 2-2s2 .9 2 2v10.6c0 1.1-.9 2-2 2z"></path><path d="M26.1 51.3c-.5 0-.9-.1-1.4-.2-2.9-.8-5.3-2.1-7.2-3.9-4.7-4.7-4.7-12-4.6-12.3 0-1.1.9-2 2-2 .3 0 7.6 0 12.3 4.7 1.8 1.8 3.1 4.2 3.9 7.2.5 1.8 0 3.7-1.3 5-1 1-2.3 1.5-3.7 1.5zm-.3-4.1c.6.2 1-.2 1.2-.3s.5-.5.3-1.2c-.6-2.2-1.6-4.1-2.9-5.4-2.1-2.1-5.2-3-7.2-3.3.3 2 1.1 5.1 3.3 7.2 1.2 1.5 3 2.4 5.3 3z"></path><path d="M31.5 55.6c-1 0-2-.4-2.8-1.1-1.2-1.1-1.7-2.9-1.3-4.6.6-2.4 1.5-4.4 2.8-5.9.9-1 1.9-1.8 3.1-2.4 1-.5 2.2-.1 2.7.9s.1 2.2-.9 2.7c-.8.4-1.4.9-2 1.5-.9 1-1.5 2.4-1.9 4.1-.1.4.1.7.2.8.7-.2 1.3-.5 1.8-.8 1-.6 2.2-.2 2.7.7.6 1 .2 2.2-.7 2.7-.8.5-1.7.9-2.7 1.2-.2.1-.6.2-1 .2z"></path><path d="M96.4 72.5c.4-1.2.6-2.4.6-3.7V31.2c0-4.4-2.4-8.4-6.2-10.5l-35-19.2c-3.6-2-7.9-2-11.5 0l-35 19.2C5.4 22.8 3 26.8 3 31.2v37.6c0 4.4 2.4 8.4 6.2 10.5l35 19.2c1.8 1 3.8 1.5 5.8 1.5s4-.5 5.8-1.5l12.6-6.9c3 5 8.4 8.4 14.6 8.4 9.4 0 17-7.6 17-17 0-4-1.4-7.6-3.6-10.5zM53.9 95c-2.4 1.3-5.3 1.3-7.7 0l-35-19.2c-2.6-1.4-4.2-4.1-4.2-7V31.2c0-2.9 1.6-5.6 4.1-7L46.1 5c1.2-.7 2.5-1 3.9-1s2.6.3 3.8 1l35 19.2c2.6 1.4 4.2 4.1 4.2 7v38.1c-2.8-2-6.2-3.2-10-3.2-9.4 0-17 7.6-17 17 0 1.7.3 3.4.7 4.9l-12.8 7zm38.5-10.6l-7.7 7.7c-.1.1-.1.2-.2.3-.4.4-1 .6-1.5.6h-.4c-.1 0-.1 0-.2-.1-.1 0-.1 0-.2-.1-.1 0-.1-.1-.2-.1 0 0-.1 0-.1-.1-.2-.1-.4-.3-.5-.5l-7.7-7.7c-.8-.8-.8-2 0-2.8s2-.8 2.8 0l4.5 4.5V75c0-1.1.9-2 2-2s2 .9 2 2v11.2l4.6-4.6c.8-.8 2-.8 2.8 0s.8 2 0 2.8z"></path></g><!----></svg>